<svg xmlns="http://www.w3.org/2000/svg" width="859.725" height="311.516" viewBox="133 41.242 429.863 155.758"><g data-name="Group 22"><g data-name="Group 1"><path d="M134.654 51.629 218.582 197l17.802-10.277-83.93-145.371-17.8 10.277Z" fill="#02004f" fill-rule="evenodd" data-name="Path 1"/></g><g data-name="Group 3" transform="translate(133 41.24)" clip-path="url(&quot;#a&quot;)"><g data-name="Group 2"><path d="M19.927 142.485c-10.46-14.995-6.785-35.63 8.21-46.09 14.996-10.46 35.63-6.785 46.09 8.21l-54.3 37.88Z" fill="#ff9600" fill-rule="evenodd" data-name="Path 2"/></g></g><path d="M133 183.726h20.554V41.242H133v142.484Z" fill="#ff002b" fill-rule="evenodd" data-name="Path 4"/><g data-name="Group 8" transform="translate(133 41.24)" clip-path="url(&quot;#b&quot;)"><g data-name="Group 4"><path d="M50.055 67.793c-10.46-14.995-6.784-35.63 8.211-46.09 14.995-10.46 35.63-6.785 46.09 8.21l-54.3 37.88Z" fill="#ff002b" fill-rule="evenodd" data-name="Path 5"/></g><g data-name="Group 5"><path d="M131.184 95.95V72.846l-17.708-27.53h15.84l6.814 13.039c.046.07.115.196.207.38.715 1.361 1.211 2.664 1.488 3.91.23-1.13.726-2.387 1.487-3.77.138-.255.23-.427.276-.52l6.744-13.038h15.875L144.5 72.847V95.95h-13.315Z" fill="#03004f" fill-rule="evenodd" data-name="Path 6"/></g><g data-name="Group 6"><path d="M215.226 70.737c0 3.643-.668 7.056-2.006 10.236-1.337 3.182-3.286 6.03-5.844 8.543a27.598 27.598 0 0 1-8.855 5.759 27.22 27.22 0 0 1-10.34 2.023c-3.62 0-7.084-.675-10.393-2.023a26.471 26.471 0 0 1-8.732-5.759c-2.607-2.513-4.583-5.371-5.932-8.577-1.35-3.204-2.024-6.605-2.024-10.202 0-3.62.675-7.026 2.024-10.22 1.349-3.194 3.325-6.046 5.932-8.56a26.471 26.471 0 0 1 8.732-5.758 27.272 27.272 0 0 1 10.393-2.023c3.596 0 7.061.674 10.393 2.023a26.769 26.769 0 0 1 8.802 5.758c2.536 2.49 4.478 5.338 5.827 8.543 1.349 3.205 2.023 6.617 2.023 10.237m-27.045 14.872c3.827 0 6.992-1.407 9.493-4.22 2.502-2.812 3.753-6.364 3.753-10.652 0-4.243-1.268-7.782-3.805-10.617-2.536-2.836-5.683-4.255-9.44-4.255-3.828 0-6.994 1.413-9.495 4.237-2.502 2.825-3.753 6.37-3.753 10.635 0 4.334 1.235 7.897 3.702 10.686 2.467 2.79 5.649 4.186 9.545 4.186" fill="#03004f" fill-rule="evenodd" data-name="Path 7"/></g><g data-name="Group 7"><path d="M226.12 79.59c2.052 2.33 4.076 4.07 6.07 5.224 1.995 1.152 3.983 1.728 5.966 1.728 1.844 0 3.361-.495 4.548-1.487 1.187-.992 1.78-2.248 1.78-3.77 0-1.683-.512-2.98-1.537-3.89-1.027-.911-3.35-1.851-6.97-2.82-4.957-1.336-8.461-3.078-10.513-5.222-2.053-2.144-3.079-5.084-3.079-8.82 0-4.84 1.62-8.79 4.86-11.844 3.238-3.056 7.44-4.583 12.606-4.583 2.79 0 5.436.375 7.937 1.124 2.501.75 4.87 1.885 7.107 3.407l-4.322 9.926c-1.568-1.337-3.176-2.346-4.825-3.026-1.649-.68-3.28-1.02-4.895-1.02-1.659 0-3.008.397-4.045 1.192-1.039.796-1.557 1.817-1.557 3.06 0 1.269.455 2.284 1.367 3.045.91.761 2.668 1.487 5.274 2.179l.622.172c5.626 1.522 9.327 3.194 11.101 5.015 1.2 1.246 2.11 2.738 2.734 4.479.622 1.741.933 3.672.933 5.794 0 5.371-1.764 9.69-5.292 12.952-3.528 3.263-8.23 4.893-14.11 4.893-3.528 0-6.739-.6-9.633-1.798-2.893-1.2-5.677-3.078-8.351-5.637l6.224-10.272Z" fill="#03004f" fill-rule="evenodd" data-name="Path 8"/></g></g><g data-name="Group 9"><path d="M398.029 137.19V86.558h13.8v19.679h18.4v-19.68h13.833v50.633h-13.834v-20.612h-18.4v20.612h-13.8Z" fill="#03004f" fill-rule="evenodd" data-name="Path 10"/></g><path d="M455.163 86.558h13.939v50.632h-13.939V86.558Z" fill="#03004f" fill-rule="evenodd" data-name="Path 11"/><g data-name="Group 10"><path d="M487.535 137.19V98.524h-11.344V86.558h36.487v11.966h-11.342v38.666h-13.8Z" fill="#03004f" fill-rule="evenodd" data-name="Path 12"/></g><g data-name="Group 14" transform="translate(133 41.24)" clip-path="url(&quot;#c&quot;)"><g data-name="Group 11"><path d="m377.604 95.95 17.465-50.633h17.293l17.5 50.633h-13.73l-2.56-9.062h-19.61l-2.628 9.062h-13.73Zm19.333-18.918h13.73l-5.153-16.705c-.162-.508-.38-1.326-.657-2.456s-.635-2.583-1.073-4.357c-.3 1.245-.593 2.432-.881 3.562a110.149 110.149 0 0 1-.883 3.251l-5.083 16.705Z" fill="#03004f" fill-rule="evenodd" data-name="Path 13"/></g><g data-name="Group 12"><path d="M201.552 116.336a7.678 7.678 0 0 0-2.232-1.349c-.785-.3-1.61-.45-2.473-.45-1.673 0-3.034.538-4.083 1.611-1.05 1.073-1.573 2.464-1.573 4.172 0 1.65.51 3.014 1.531 4.087 1.022 1.073 2.309 1.61 3.864 1.61.906 0 1.768-.16 2.588-.481.817-.32 1.605-.804 2.356-1.453v2.812c-.668.48-1.396.84-2.184 1.077a8.829 8.829 0 0 1-2.562.355c-1.17 0-2.251-.191-3.247-.574a7.553 7.553 0 0 1-2.617-1.694 7.486 7.486 0 0 1-1.72-2.588 8.368 8.368 0 0 1-.602-3.173c0-1.121.2-2.175.602-3.162.4-.985.98-1.852 1.74-2.598a7.686 7.686 0 0 1 2.614-1.71 8.663 8.663 0 0 1 3.189-.58c.899 0 1.755.132 2.571.393a8.994 8.994 0 0 1 2.373 1.187l-.135 2.508Z" fill="#03004f" fill-rule="evenodd" data-name="Path 14"/></g><g data-name="Group 13"><path d="M217.672 121.072v6.848h-2.331v-15.305h3.47c1.018 0 1.807.065 2.368.199.561.132 1.04.35 1.438.657.475.37.84.847 1.098 1.433.258.586.387 1.227.387 1.924 0 1.227-.297 2.188-.889 2.879-.592.694-1.467 1.11-2.624 1.25l5.27 6.963h-2.813l-5.092-6.848h-.282Zm.157-1.934h.45c1.317 0 2.191-.153 2.624-.46.432-.307.647-.85.647-1.63 0-.844-.232-1.439-.693-1.783-.465-.346-1.324-.517-2.578-.517h-.45v4.39Z" fill="#03004f" fill-rule="evenodd" data-name="Path 15"/></g></g><g data-name="Group 15"><path d="M371.038 169.16v-15.304h8.54v2.11h-6.052v3.838h6.052v2.185h-6.052v4.945h6.052v2.227h-8.54Z" fill="#03004f" fill-rule="evenodd" data-name="Path 17"/></g><g data-name="Group 17" transform="translate(133 41.24)" clip-path="url(&quot;#d&quot;)"><g data-name="Group 16"><path d="m270.248 127.92-1.736-3.941h-6.064l-1.777 3.94h-2.613l7.411-15.91 7.403 15.91h-2.624Zm-6.88-6.012h4.265l-1.568-3.491a14.06 14.06 0 0 1-.281-.768 17.603 17.603 0 0 1-.293-.967 13.662 13.662 0 0 1-.554 1.735l-1.568 3.491Z" fill="#03004f" fill-rule="evenodd" data-name="Path 18"/></g></g><g data-name="Group 18"><path d="M421.794 155.967v13.194h-2.489v-13.194h-4.066v-2.111h10.6v2.111h-4.045Z" fill="#03004f" fill-rule="evenodd" data-name="Path 20"/></g><path d="M438.49 153.855h2.488v15.305h-2.489v-15.305Z" fill="#03004f" fill-rule="evenodd" data-name="Path 21"/><g data-name="Group 20" transform="translate(133 41.24)" clip-path="url(&quot;#e&quot;)"><g data-name="Group 19"><path d="m327.12 128.516-6.827-15.901h2.583l3.428 8.154c.202.474.37.912.502 1.313.133.4.238.781.314 1.144.09-.384.205-.781.345-1.192.139-.411.303-.832.49-1.265l3.42-8.154h2.571l-6.826 15.9Z" fill="#03004f" fill-rule="evenodd" data-name="Path 22"/></g></g><g data-name="Group 21"><path d="M479.199 169.16v-15.304h8.542v2.11h-6.054v3.838h6.054v2.185h-6.054v4.945h6.054v2.227h-8.542Z" fill="#03004f" fill-rule="evenodd" data-name="Path 24"/></g></g><defs><clipPath id="a"><path d="M0 24.812h429.862v-155.759H0V24.812Z" data-name="Path 3" transform="translate(0 130.947)"/></clipPath><clipPath id="b"><path d="M0 24.812h429.862v-155.759H0V24.812Z" data-name="Path 9" transform="translate(0 130.947)"/></clipPath><clipPath id="c"><path d="M0 24.812h429.862v-155.759H0V24.812Z" data-name="Path 16" transform="translate(0 130.947)"/></clipPath><clipPath id="d"><path d="M0 24.812h429.862v-155.759H0V24.812Z" data-name="Path 19" transform="translate(0 130.947)"/></clipPath><clipPath id="e"><path d="M0 24.812h429.862v-155.759H0V24.812Z" data-name="Path 23" transform="translate(0 130.947)"/></clipPath></defs></svg>